<?xml version="1.0" encoding="UTF-8"?>
<svg width="68.246mm" height="25.16mm" version="1.1" viewBox="0 0 68.246 25.16" xmlns="http://www.w3.org/2000/svg" xmlns:xlink="http://www.w3.org/1999/xlink">
<defs>
<linearGradient id="b" x1="6.7044" x2="41.895" y1="6.2119" y2="8.7739" gradientTransform="matrix(.32221 2.9244 -2.9244 .32221 67.941 -47.341)" gradientUnits="userSpaceOnUse">
<stop stop-color="#AF67FF" offset="0"/>
<stop stop-color="#8E5FFC" offset=".26"/>
<stop stop-color="#5651F6" offset=".76"/>
<stop stop-color="#414CF5" offset="1"/>
</linearGradient>
<linearGradient id="a" x1="23.94" x2="37.099" y1="-37.686" y2="-37.686" gradientTransform="translate(-23.94 48.464)" gradientUnits="userSpaceOnUse">
<stop stop-color="#AF67FF" offset="0"/>
<stop stop-color="#8E5FFC" offset=".26"/>
<stop stop-color="#5651F6" offset=".76"/>
<stop stop-color="#414CF5" offset="1"/>
</linearGradient>
</defs>
<path d="m6.536 19.98q-1.3022 0-2.4681-0.24805-1.1658-0.24805-2.1828-0.74414-1.0046-0.49609-1.8852-1.2402l1.5751-1.9348q1.0294 0.89297 2.2696 1.3395 1.2402 0.44648 2.6913 0.44648 1.9596 0 3.0386-0.71934 1.079-0.73174 1.079-2.0588v-0.0124q0-0.94258-0.49609-1.4883-0.48369-0.5581-1.265-0.81855-0.76894-0.27285-1.9968-0.49609-0.03721-0.0124-0.08682-0.0124-0.03721 0-0.07441-0.0124l-0.18604-0.03721q-1.8107-0.31006-2.9518-0.69453-1.1286-0.39688-1.9348-1.4263-0.80615-1.0418-0.80615-2.9518v-0.0124q0-1.6743 0.74414-2.8525 0.75654-1.1906 2.1952-1.8107t3.4603-0.62012q0.96738 0 1.8976 0.21084 0.94258 0.21084 1.848 0.63252 0.91777 0.40928 1.7983 1.0418l-1.4387 2.0092q-1.0294-0.75654-2.0588-1.1286-1.017-0.38447-2.0464-0.38447-1.8479 0-2.8773 0.74414-1.017 0.73174-1.017 2.0836v0.0124q0 0.93018 0.5209 1.4635 0.5333 0.5333 1.3146 0.79375 0.79375 0.24805 2.1952 0.5209 0.04961 0.0124 0.08682 0.02481 0.04961 0 0.09922 0.0124 0.06201 0.0124 0.13643 0.0248 0.07441 0.0124 0.13642 0.02481 1.6371 0.33486 2.7285 0.79375 1.1038 0.45889 1.8355 1.4883 0.74414 1.017 0.74414 2.7905v0.02481q0 1.6495-0.78135 2.8277-0.78135 1.1658-2.2696 1.7859-1.4759 0.60772-3.5719 0.60772z" fill="url(#a)"/>
<path d="m21.444 19.98q-1.6743 0-2.8649-0.65732-1.1906-0.65732-1.8231-1.91-0.62012-1.265-0.62012-3.0386v-2.096q0-1.7487 0.62012-2.989 0.63252-1.2526 1.8231-1.8976 1.1906-0.65732 2.8649-0.65732 1.6743 0 2.8649 0.65732 1.1906 0.64492 1.8107 1.8976 0.63252 1.2402 0.63252 2.989v2.1332q0 1.7611-0.63252 3.0138-0.62012 1.2402-1.8107 1.8976-1.1906 0.65732-2.8649 0.65732zm0-2.4061q1.3271 0 2.0464-0.83096 0.73174-0.83096 0.73174-2.3316v-2.1332q0-1.5007-0.73174-2.3192-0.71934-0.81856-2.0464-0.81856-1.327 0-2.0588 0.81856-0.71934 0.81856-0.71934 2.3192v2.1332q0 1.5007 0.71934 2.3316 0.73174 0.83096 2.0588 0.83096z" fill="#fff"/>
<path d="m32.879 16.47q0 0.47129 0.19844 0.73174 0.21084 0.24805 0.58291 0.24805h1.1906v2.4061h-1.4883q-1.4387 0-2.2324-0.89297-0.78135-0.89297-0.78135-2.5177v-14.684h2.5301z" fill="#fff"/>
<path d="m37.579 6.9207h2.5301v18.107h-2.5301zm5.7671 13.06q-1.203 0-2.096-0.57051-0.89297-0.58291-1.3146-1.6371l0.17363-2.6913q0 0.83096 0.29766 1.4139t0.85576 0.89297q0.57051 0.31006 1.3767 0.31006 1.2526 0 1.9348-0.75654 0.69453-0.76895 0.69453-2.158v-2.7905q0-1.4139-0.69453-2.1952-0.68213-0.78135-1.9348-0.78135-0.80615 0-1.3767 0.29766-0.55811 0.29766-0.85576 0.88057-0.29766 0.57051-0.29766 1.3767l-0.26045-2.4805q0.58291-1.1286 1.5255-1.7363 0.94258-0.62012 2.096-0.62012 1.3643 0 2.3316 0.62012 0.97978 0.60772 1.4883 1.7859 0.5085 1.1782 0.5085 2.8401v2.8029q0 1.6371-0.5209 2.8029-0.5209 1.1658-1.5255 1.7859-1.0046 0.60772-2.4061 0.60772z" fill="#fff"/>
<path d="m51.395 1.7613h2.5301v2.5301h-2.5301zm0 5.1594h2.5301v12.874h-2.5301z" fill="#fff"/>
<path d="m57.77 6.9207h2.5301v12.874h-2.5301zm7.8135 5.0726q0-1.3643-0.70693-2.1084-0.70693-0.74414-1.9844-0.74414-1.2402 0-1.9224 0.65732-0.66973 0.65732-0.66973 1.8479l-0.26045-2.4805q0.59531-1.1658 1.5503-1.7983 0.96738-0.63252 2.1332-0.63252 2.096 0 3.237 1.3767 1.1534 1.3643 1.1534 3.8695v7.8135h-2.5301z" fill="#fff"/>
<path d="m50.427 2.8422c0.1549 1.4061 1.4204 2.4204 2.8266 2.2654 1.4062-0.1549 2.4204-1.4204 2.2655-2.8265-0.15501-1.406-1.4204-2.4204-2.8267-2.2654-1.4062 0.1549-2.4206 1.4204-2.2657 2.8265z" fill="url(#b)" stroke-width="2.9421"/>
</svg>
